# xmcd
#
# Track frame offsets:
#	150
#	15561
#	30640
#	46140
#	63542
#	76921
#	88066
#	104075
#	119371
#	134028
#
# Disc length: 1980 seconds
# Revision: 0
# Processed by: cddbd v1.5.2PL0 Copyright (c) Steve Scherf et al.
# Submitted via: dBpowerAMP V12.0
#
DISCID=8507ba0a
DTITLE=ClayBank - Road Signs and Highways
DYEAR=2019
DGENRE=Bluegrass
TTITLE0=Emma
TTITLE1=What's a Man in Love to Do
TTITLE2=Dreamer
TTITLE3=Needed More Soldiers to Carry the Cross
TTITLE4=Tennessee Gypsy
TTITLE5=Thanks for Nothin'
TTITLE6=I Robbed a Train
TTITLE7=That's the Difference Between Me and You
TTITLE8=Road Signs and Highways
TTITLE9=Back to Dixie
EXTD=
EXTT0=
EXTT1=
EXTT2=
EXTT3=
EXTT4=
EXTT5=
EXTT6=
EXTT7=
EXTT8=
EXTT9=
PLAYORDER=
